<svg width="49" height="38" viewBox="0 0 49 38" fill="none" xmlns="http://www.w3.org/2000/svg">
<path d="M15.6329 0.0952278C13.1804 0.411795 11.1014 1.45817 9.24294 3.30097C7.71994 4.80767 6.82844 6.25676 6.18693 8.24382C4.83593 12.4093 5.71743 17.0831 8.45744 20.2694C8.71594 20.5764 9.05144 20.8835 9.20494 20.9606C10.0094 21.3828 10.9199 20.8359 10.9199 19.9338C10.9199 19.5691 10.7954 19.3577 10.0579 18.4847C9.06144 17.304 8.28544 15.5188 8.04594 13.8203C7.86394 12.6016 7.96944 10.5094 8.26644 9.49205C8.77444 7.72589 9.43544 6.50721 10.5369 5.33611C12.2999 3.45474 14.1964 2.53359 16.5439 2.41839C19.1975 2.28415 21.478 3.2053 23.3555 5.1633C24.9075 6.78521 25.837 8.88697 26.0665 11.2963C26.191 12.6302 26.2775 12.9087 26.67 13.1486C27.2065 13.4747 28.0115 13.3119 28.2795 12.8225C28.337 12.7073 28.4425 12.0932 28.5095 11.4501C28.663 9.88576 28.9405 8.87795 29.554 7.6207C32.0065 2.5917 37.8795 0.854587 42.3345 3.82941C44.1355 5.03858 45.5345 6.92946 46.205 9.06028C46.9425 11.3925 46.7605 14.3583 45.7645 16.5272C45.094 17.9667 44.6245 18.5137 40.9645 22.0455C37.869 25.0294 29.4475 33.1108 27.905 34.579L27.3015 35.145L26.8035 34.6746C26.5255 34.4157 23.853 31.8721 20.8635 29.0025C15.1919 23.5708 15.1634 23.5517 14.5694 23.7436C14.1959 23.8588 13.8029 24.2715 13.7359 24.6071C13.6114 25.3079 13.6399 25.3555 16.9839 28.5707C27.369 38.5426 26.871 38.1013 27.5895 37.9475C27.8865 37.8804 29.544 36.3161 39.5555 26.6798C42.1135 24.2134 44.6045 21.8236 45.093 21.3533C47.085 19.4629 48.292 17.2745 48.829 14.5972C49.059 13.4356 49.059 10.9021 48.819 9.77907C47.3725 2.82061 40.973 -1.39244 34.6115 0.42131C33.548 0.72836 31.8525 1.56336 31.0095 2.20651C29.678 3.21431 28.375 4.73053 27.685 6.06492C27.503 6.42005 27.321 6.70807 27.2925 6.70807C27.254 6.70807 27.168 6.57383 27.101 6.40102C26.6315 5.24946 24.8975 3.19528 23.566 2.20701C21.2945 0.507464 18.3825 -0.269926 15.6329 0.0952278Z" fill="#DA0000"/>
<path d="M18.4105 12.9463C18.2765 13.071 17.9985 13.8003 17.5865 15.0771C15.9965 20.0771 15.5175 21.5838 15.5175 21.6318C15.5175 21.6604 12.1355 21.6799 7.99701 21.6799H0.467001L0.237 21.9199C-0.0790001 22.2269 -0.0790001 22.6682 0.237 22.9758L0.467001 23.2157H8.40901C15.8435 23.2157 16.3705 23.2062 16.562 23.0429C16.7055 22.9277 17.0505 21.9679 17.7885 19.6358C18.3535 17.8601 18.8425 16.4496 18.8805 16.5167C18.919 16.5838 19.599 19.0407 20.394 21.9679C21.965 27.7167 21.965 27.7263 22.5975 27.7263C23.182 27.7263 23.23 27.6111 24.0825 24.252C24.523 22.5244 24.9065 21.0563 24.9255 20.9887C24.954 20.9216 25.117 21.2477 25.2895 21.7085C25.462 22.1788 25.692 22.6106 25.807 22.6872C25.97 22.8024 26.5255 22.831 28.9395 22.831C31.7655 22.831 31.8805 22.8215 32.13 22.6296C32.3215 22.4759 32.379 22.3511 32.379 22.0536C32.379 21.3629 32.3405 21.3528 29.3995 21.2952L26.803 21.2472L26.1325 19.5396C25.529 17.9848 25.433 17.812 25.165 17.6968C25.002 17.6297 24.772 17.6101 24.638 17.6392C24.14 17.7734 24.092 17.9272 22.9805 22.2459C22.674 23.417 22.559 23.7627 22.5015 23.6184C22.4535 23.5032 21.7925 21.1134 21.026 18.3014C19.8285 13.925 19.5985 13.1572 19.3875 12.9653C19.091 12.7064 18.6885 12.6968 18.4105 12.9463Z" fill="#DA0000"/>
</svg>
