<svg width="33" height="28" viewBox="0 0 33 28" fill="none" xmlns="http://www.w3.org/2000/svg">
<path d="M0.519237 14.7748L12.2508 26.5066C12.5857 26.8415 13.032 27.0253 13.5079 27.0253C13.9843 27.0253 14.4304 26.8412 14.7653 26.5066L15.8304 25.4412C16.1651 25.1069 16.3494 24.6603 16.3494 24.1841C16.3494 23.7082 16.1651 23.2465 15.8304 22.9122L8.98643 16.0531L30.7302 16.0531C31.7105 16.0531 32.4851 15.2856 32.4851 14.305L32.4851 12.7988C32.4851 11.8182 31.7105 10.9733 30.7302 10.9733L8.90879 10.9733L15.8302 4.07593C16.1648 3.74104 16.3491 3.30659 16.3491 2.83041C16.3491 2.35475 16.1648 1.91396 15.8302 1.57934L14.765 0.517375C14.4302 0.18249 13.9841 -6.42321e-06 13.5076 -6.46486e-06C13.0317 -6.50647e-06 12.5854 0.184866 12.2505 0.519751L0.518974 12.2513C0.183297 12.5872 -0.00131155 13.0357 8.92955e-06 13.5124C-0.00104753 13.9907 0.183296 14.4394 0.519237 14.7748Z" fill="black"/>
</svg>
