<svg width="43" height="43" viewBox="0 0 43 43" fill="none" xmlns="http://www.w3.org/2000/svg">
<path d="M32.0769 23.5882L25.9605 19.8087C25.1245 19.292 24.4346 18.5702 23.9561 17.7118C23.4776 16.8535 23.2264 15.887 23.2266 14.9043V0H19.7729V14.8991C19.7729 15.8829 19.5211 16.8503 19.0415 17.7094C18.562 18.5684 17.8706 19.2904 17.0331 19.8066L10.8856 23.5972C10.6966 23.7134 10.5323 23.8658 10.4022 24.0456C10.2722 24.2255 10.1788 24.4292 10.1276 24.6451C10.0764 24.8611 10.0682 25.085 10.1037 25.3041C10.1391 25.5232 10.2174 25.7331 10.3341 25.9219L10.3572 25.9589C10.4764 26.1538 10.6329 26.3232 10.8178 26.4574C11.0026 26.5916 11.2122 26.688 11.4344 26.7409C11.6566 26.7939 11.8871 26.8024 12.1126 26.766C12.3382 26.7296 12.5543 26.649 12.7485 26.5288C14.2367 25.6045 16.5821 24.1536 18.4692 22.9858C19.3798 22.4225 20.4294 22.1241 21.5002 22.1241C22.5711 22.1241 23.6207 22.4225 24.5313 22.9858L30.2609 26.5264C30.4539 26.6456 30.6684 26.7256 30.8922 26.762C31.1161 26.7983 31.3449 26.7901 31.5656 26.738C31.7863 26.6859 31.9946 26.5908 32.1785 26.4582C32.3625 26.3256 32.5185 26.158 32.6378 25.9651C32.8786 25.5755 32.9547 25.1062 32.8496 24.6605C32.7444 24.2147 32.4664 23.829 32.0769 23.5882Z" fill="#FDE4E4"/>
<path d="M36.5636 19.3064L33.3983 15.0627C32.9078 14.4051 32.2225 13.9187 31.4399 13.6725C30.6573 13.4264 29.817 13.433 29.0383 13.6914C28.2597 13.9498 27.5822 14.4469 27.102 15.1122C26.6218 15.7774 26.3633 16.5771 26.3633 17.3975C26.3626 18.2579 26.3174 19.1177 26.2279 19.9734L32.0763 23.5881C32.4659 23.829 32.7439 24.2147 32.8491 24.6605C32.9543 25.1063 32.8781 25.5756 32.6373 25.9652C32.3965 26.3549 32.0108 26.6329 31.565 26.7381C31.1193 26.8433 30.65 26.7671 30.2603 26.5263L25.5744 23.6286C25.4926 23.9467 25.4056 24.2634 25.3113 24.578L25.2646 24.7334C24.5659 27.0629 24.2109 29.4819 24.2109 31.9139V38.6948C24.2109 39.8366 24.6645 40.9316 25.4718 41.739C26.2792 42.5464 27.3742 43 28.5159 43H38.6949C39.8366 43 40.9316 42.5464 41.7389 41.739C42.5463 40.9316 42.9998 39.8366 42.9998 38.6948C42.9993 31.7073 40.7418 24.9069 36.5636 19.3064V19.3064Z" fill="#FF637B"/>
<path d="M17.6886 24.578C17.5944 24.2637 17.5068 23.9477 17.4257 23.6299C15.7739 24.6519 13.9721 25.7678 12.7478 26.5277C12.5535 26.6479 12.3374 26.7285 12.1119 26.7649C11.8864 26.8013 11.6559 26.7928 11.4337 26.7399C11.2114 26.6869 11.0019 26.5905 10.817 26.4563C10.6322 26.3221 10.4756 26.1527 10.3565 25.9578L10.3333 25.9219C10.2167 25.7332 10.1385 25.5234 10.103 25.3045C10.0676 25.0856 10.0757 24.8618 10.1268 24.646C10.1779 24.4302 10.271 24.2265 10.4008 24.0467C10.5307 23.867 10.6947 23.7145 10.8835 23.5982L16.7695 19.9685C16.6806 19.1144 16.6356 18.2563 16.6349 17.3975C16.6348 16.5771 16.3763 15.7774 15.8961 15.1122C15.416 14.4469 14.7384 13.9498 13.9598 13.6914C13.1811 13.433 12.3408 13.4264 11.5582 13.6725C10.7756 13.9187 10.0903 14.4051 9.59977 15.0627L6.4345 19.3064C2.2569 24.9072 3.49562e-05 31.7075 0 38.6948C0 39.2602 0.111351 39.82 0.327697 40.3423C0.544042 40.8646 0.861144 41.3392 1.2609 41.739C1.66065 42.1388 2.13523 42.4559 2.65753 42.6723C3.17984 42.8886 3.73964 43 4.30497 43H14.4839C15.0493 43 15.6091 42.8886 16.1314 42.6723C16.6537 42.4559 17.1282 42.1388 17.528 41.739C17.9277 41.3392 18.2448 40.8646 18.4612 40.3423C18.6775 39.82 18.7889 39.2602 18.7889 38.6948V31.9139C18.7887 29.4819 18.4335 27.0629 17.7345 24.7334L17.6886 24.578Z" fill="#FF637B"/>
<path d="M10.3363 32.9398C9.848 32.9393 9.36086 32.8931 8.88124 32.8016L6.23401 32.3012C6.15457 32.288 6.07856 32.2591 6.01045 32.2161C5.94234 32.1731 5.88351 32.117 5.8374 32.051C5.79129 31.9849 5.75884 31.9104 5.74195 31.8316C5.72507 31.7529 5.72409 31.6716 5.73907 31.5924C5.75405 31.5133 5.78469 31.438 5.8292 31.3709C5.8737 31.3037 5.93117 31.2462 5.99822 31.2016C6.06527 31.157 6.14056 31.1263 6.21966 31.1112C6.29877 31.0961 6.38009 31.097 6.45885 31.1137L9.10711 31.6152C10.0996 31.8009 11.1214 31.7579 12.0948 31.4896C13.0682 31.2212 13.9676 30.7346 14.7248 30.0665L15.468 29.4203C15.589 29.315 15.7469 29.262 15.907 29.2731C16.067 29.2842 16.2161 29.3584 16.3214 29.4794C16.4268 29.6004 16.4797 29.7583 16.4687 29.9183C16.4576 30.0784 16.3834 30.2275 16.2624 30.3328L15.5192 30.979C14.0857 32.2383 12.2442 32.935 10.3363 32.9398V32.9398Z" fill="#E63950"/>
<path d="M10.3363 37.6736C9.848 37.6732 9.36086 37.627 8.88124 37.5355L6.23401 37.035C6.15457 37.0219 6.07856 36.9929 6.01045 36.95C5.94234 36.907 5.88351 36.8509 5.8374 36.7848C5.79129 36.7188 5.75884 36.6442 5.74195 36.5655C5.72507 36.4868 5.72409 36.4054 5.73907 36.3263C5.75405 36.2472 5.78469 36.1718 5.8292 36.1047C5.8737 36.0376 5.93117 35.9801 5.99822 35.9355C6.06527 35.8909 6.14056 35.8601 6.21966 35.845C6.29877 35.83 6.38009 35.8308 6.45885 35.8476L9.10711 36.3491C10.0998 36.5349 11.1217 36.492 12.0953 36.2237C13.0689 35.9553 13.9686 35.4686 14.7259 34.8004L15.4691 34.1542C15.59 34.0489 15.7479 33.9959 15.9079 34.0069C16.0679 34.018 16.217 34.0921 16.3223 34.2131C16.4276 34.334 16.4806 34.4919 16.4696 34.6519C16.4585 34.8119 16.3844 34.961 16.2634 35.0664L15.5202 35.7129C14.0865 36.9724 12.2446 37.6691 10.3363 37.6736V37.6736Z" fill="#E63950"/>
<path d="M32.6622 32.9398C30.755 32.9344 28.9145 32.2378 27.4817 30.979L26.7385 30.3328C26.6175 30.2275 26.5433 30.0784 26.5322 29.9183C26.5211 29.7583 26.5741 29.6004 26.6794 29.4794C26.7848 29.3584 26.9338 29.2842 27.0939 29.2731C27.2539 29.262 27.4118 29.315 27.5328 29.4203L28.2736 30.0665C29.031 30.7347 29.9306 31.2214 30.9042 31.4897C31.8778 31.7581 32.8997 31.801 33.8924 31.6152L36.5406 31.1137C36.6194 31.097 36.7007 31.0961 36.7798 31.1112C36.8589 31.1263 36.9342 31.157 37.0013 31.2016C37.0683 31.2462 37.1258 31.3037 37.1703 31.3709C37.2148 31.438 37.2454 31.5133 37.2604 31.5924C37.2754 31.6716 37.2744 31.7529 37.2575 31.8316C37.2406 31.9104 37.2082 31.9849 37.1621 32.051C37.116 32.117 37.0571 32.1731 36.989 32.2161C36.9209 32.2591 36.8449 32.288 36.7655 32.3012L34.1172 32.803C33.6375 32.8938 33.1504 32.9396 32.6622 32.9398V32.9398Z" fill="#E63950"/>
<path d="M32.662 37.6736C30.7549 37.6682 28.9144 36.9716 27.4816 35.7129L26.7383 35.0664C26.6174 34.961 26.5432 34.8119 26.5322 34.6519C26.5212 34.4919 26.5741 34.334 26.6795 34.2131C26.7848 34.0921 26.9339 34.018 27.0939 34.0069C27.2539 33.9959 27.4117 34.0489 27.5327 34.1542L28.2759 34.8004C29.0332 35.4687 29.9328 35.9555 30.9064 36.2238C31.88 36.4922 32.902 36.535 33.8947 36.3491L36.5429 35.8476C36.6217 35.8308 36.703 35.83 36.7821 35.845C36.8612 35.8601 36.9365 35.8909 37.0035 35.9355C37.0706 35.9801 37.1281 36.0376 37.1726 36.1047C37.2171 36.1718 37.2477 36.2472 37.2627 36.3263C37.2777 36.4054 37.2767 36.4868 37.2598 36.5655C37.2429 36.6442 37.2105 36.7188 37.1644 36.7848C37.1183 36.8509 37.0594 36.907 36.9913 36.95C36.9232 36.9929 36.8472 37.0219 36.7677 37.035L34.1195 37.5365C33.639 37.6278 33.1511 37.6737 32.662 37.6736V37.6736Z" fill="#E63950"/>
</svg>
