<svg width="40" height="39" viewBox="0 0 40 39" fill="none" xmlns="http://www.w3.org/2000/svg">
<path d="M15.6903 6.96627C7.03896 6.96627 0 13.9643 0 22.5637C0 31.1622 7.03896 38.1644 15.6903 38.1644C24.3439 38.1644 31.3823 31.1655 31.3823 22.5637C31.3823 13.9629 24.3408 6.96627 15.6903 6.96627ZM15.6903 36.4932C7.965 36.4932 1.68099 30.2485 1.68099 22.5639C1.68099 14.8836 7.96473 8.63776 15.6903 8.63776C23.4148 8.63776 29.701 14.8836 29.701 22.5639C29.7013 30.2482 23.4131 36.4932 15.6903 36.4932ZM34.4507 36.8163H40V39H31.3545V38.9967C31.3545 37.8477 31.6467 36.8552 32.2294 36.0356C32.8155 35.213 33.9171 34.2338 35.5375 33.1043C36.263 32.6018 36.7688 32.1445 37.066 31.7269C37.3632 31.3089 37.511 30.8422 37.511 30.3294C37.511 29.7713 37.3469 29.3192 37.0252 28.9779C36.7 28.6386 36.2714 28.4684 35.7347 28.4684C35.1667 28.4684 34.7204 28.6811 34.4051 29.1083C34.0865 29.5327 33.9388 30.117 33.9599 30.8449H31.517C31.4792 29.4836 31.8339 28.3966 32.6022 27.5936C33.3638 26.7939 34.4146 26.3924 35.7545 26.3924C37.0005 26.3924 38.0235 26.7646 38.8148 27.4989C39.6061 28.2334 39.9969 29.1867 39.9969 30.352C39.9969 31.3053 39.772 32.1019 39.3237 32.7285C38.874 33.3584 38.0318 34.0637 36.7986 34.8504C35.6545 35.572 34.8745 36.2214 34.4557 36.8058L34.4507 36.8163ZM22.6956 5.43367C22.6956 4.28215 23.6384 3.34437 24.7972 3.34437C25.956 3.34437 26.8984 4.28215 26.8984 5.43367C26.8984 6.58519 25.956 7.5227 24.7972 7.5227C23.6384 7.5227 22.6956 6.58519 22.6956 5.43367ZM29.4205 3.34272C29.4205 1.49753 30.9276 0 32.7827 0C34.6379 0 36.1447 1.49753 36.1447 3.34272C36.1447 5.18791 34.6376 6.68709 32.7827 6.68709C30.9276 6.68709 29.4205 5.18956 29.4205 3.34272ZM35.585 12.5355C35.585 13.9212 34.4557 15.0426 33.0635 15.0426C31.6711 15.0426 30.5418 13.9212 30.5418 12.5355C30.5418 11.1512 31.6711 10.0284 33.0635 10.0284C34.4557 10.0284 35.585 11.1512 35.585 12.5355Z" fill="#116FDE"/>
</svg>
