<svg width="512" height="512" viewBox="0 0 512 512" fill="none" xmlns="http://www.w3.org/2000/svg">
<path d="M512 172.625V117.977L256 0L0 117.977V172.625H512ZM255.5 49.4336C280.848 49.4336 301.473 70.0547 301.473 95.4023C301.473 120.754 280.848 141.375 255.5 141.375C230.152 141.375 209.527 120.754 209.527 95.4023C209.527 70.0547 230.152 49.4336 255.5 49.4336V49.4336Z" fill="#01F1B7"/>
<path d="M255.5 111.375C264.309 111.375 271.473 104.211 271.473 95.4023C271.473 86.5977 264.305 79.4336 255.5 79.4336C246.695 79.4336 239.527 86.5977 239.527 95.4023C239.527 104.211 246.691 111.375 255.5 111.375V111.375Z" fill="#01F1B7"/>
<path d="M499 354.07H460.461V202.625H363V354.07H304.23V202.625H206.77V354.07H148V202.625H50.5391V354.07H24V411.32H499V354.07Z" fill="#01F1B7"/>
<path d="M0 441.32H512V511.07H0V441.32Z" fill="#01F1B7"/>
</svg>
