<svg width="610" height="563" viewBox="0 0 610 563" fill="none" xmlns="http://www.w3.org/2000/svg">
<path d="M157.884 124.963C61.6661 122.759 9.81256 153.202 -4.08704 168.698L-4.43164 563H390.501C405.388 540.134 460.114 510.541 485.616 498.603C533.311 473.809 563.614 449.473 572.804 440.405C637.868 382.826 601.982 328.026 575.906 307.823C495.954 255.203 474.358 216.336 473.554 203.479C466.662 194.663 469.074 138.738 471.142 111.877C474.726 35.5652 423.469 6.61532 397.393 1.67937C343.633 -7.68745 305.84 24.4077 293.663 41.6261C267.472 113.806 192.23 127.259 157.884 124.963Z" fill="#69B2E0" fill-opacity="0.2"/>
</svg>
