<svg width="611" height="627" viewBox="0 0 611 627" fill="none" xmlns="http://www.w3.org/2000/svg">
<path d="M366.155 61.4482C278.955 162.648 214.155 202.282 192.655 209.448L93.6547 261.948C44.9881 281.115 -37.7453 345.648 20.6547 450.448C79.0547 555.248 212.988 603.448 272.655 614.448C376.155 636.948 497.655 631.948 582.155 571.948C649.755 523.948 691.655 396.281 704.155 338.448C728.555 242.848 714.321 179.615 704.155 159.948C686.155 101.948 617.321 51.4482 585.155 33.4482C523.555 -7.75182 463.488 -2.38516 441.155 5.44818C415.555 10.2482 380.488 44.7815 366.155 61.4482Z" fill="#BE4DE6" fill-opacity="0.3"/>
</svg>
